<svg width="64" height="64" viewBox="0 0 64 64" fill="none" xmlns="http://www.w3.org/2000/svg">
<rect width="64" height="64" rx="32" fill="#F53900"/>
<path d="M18 15C16.8954 15 16 15.8954 16 17C16 18.1046 16.8954 19 18 19H46C47.1046 19 48 18.1046 48 17C48 15.8954 47.1046 15 46 15H18Z" fill="white"/>
<path d="M44.6985 37.5185L34 28.3484V51.5C34 52.6046 33.1046 53.5 32 53.5C30.8954 53.5 30 52.6046 30 51.5V28.3485L19.3016 37.5185C18.463 38.2374 17.2004 38.1402 16.4815 37.3016C15.7627 36.4629 15.8598 35.2003 16.6985 34.4815L30.0477 23.0393C31.1711 22.0763 32.8289 22.0763 33.9524 23.0393L47.3016 34.4815C48.1403 35.2003 48.2374 36.4629 47.5185 37.3016C46.7997 38.1402 45.5371 38.2374 44.6985 37.5185Z" fill="white"/>
</svg>
